<?xml version="1.0" standalone="no"?>
<!DOCTYPE svg PUBLIC "-//W3C//DTD SVG 20010904//EN"
 "http://www.w3.org/TR/2001/REC-SVG-20010904/DTD/svg10.dtd">
<svg version="1.0" xmlns="http://www.w3.org/2000/svg"
 width="245.000000pt" height="206.000000pt" viewBox="0 0 245.000000 206.000000"
 preserveAspectRatio="xMidYMid meet">

<g transform="translate(0.000000,206.000000) scale(0.100000,-0.100000)"
fill="#000000" stroke="none">
<path d="M1338 1863 c7 -3 16 -2 19 1 4 3 -2 6 -13 5 -11 0 -14 -3 -6 -6z"/>
<path d="M1064 1805 c0 -22 3 -31 8 -23 10 16 10 58 1 58 -5 0 -8 -16 -9 -35z"/>
<path d="M790 1810 c0 -5 -7 -7 -15 -4 -23 9 -18 -4 6 -17 13 -7 19 -7 15 -1
-4 6 2 15 11 21 17 10 17 10 1 11 -10 0 -18 -4 -18 -10z"/>
<path d="M712 1787 c-12 -7 -21 -15 -18 -18 2 -2 -6 -5 -19 -5 -28 -2 -96 -48
-149 -100 -53 -54 -99 -153 -100 -219 -1 -44 -3 -51 -19 -47 -10 2 -26 -3 -36
-12 -10 -9 -21 -13 -26 -9 -4 5 -5 3 -2 -4 4 -6 1 -13 -5 -16 -9 -3 -3 -15 16
-36 17 -17 25 -31 18 -31 -6 0 -14 5 -17 10 -10 16 -40 12 -65 -10 -18 -15
-19 -20 -7 -20 8 0 22 7 31 15 8 8 18 15 23 15 4 -1 -2 -9 -15 -20 -19 -16
-21 -22 -11 -44 10 -20 15 -23 30 -16 27 15 36 12 13 -4 -11 -8 -35 -14 -52
-14 -17 1 -43 -7 -58 -17 -16 -10 -29 -13 -33 -7 -3 5 -17 12 -31 14 -14 2
-24 9 -23 15 2 7 -7 9 -25 4 -20 -5 -28 -15 -30 -35 -3 -23 0 -27 15 -22 29 8
57 -18 49 -48 -4 -18 -11 -24 -22 -19 -13 5 -15 2 -8 -18 4 -13 8 -32 9 -43 1
-10 17 -31 35 -48 30 -25 32 -32 22 -48 -15 -25 -15 -30 1 -30 8 0 22 -9 32
-19 11 -13 33 -21 63 -23 43 -3 45 -5 47 -33 1 -16 -5 -45 -14 -62 -14 -30
-13 -36 7 -75 27 -56 44 -123 42 -174 -2 -76 31 -123 117 -169 38 -20 50 -31
43 -40 -15 -18 47 -31 160 -36 52 -2 349 -3 660 -3 581 1 629 4 600 38 -8 11
-2 17 25 30 85 40 126 100 126 182 0 91 3 123 11 111 5 -8 8 -6 8 7 0 10 10
34 21 53 19 30 20 38 9 61 -16 34 -21 102 -8 102 6 0 5 6 -2 15 -7 8 -10 24
-7 36 3 12 -1 32 -9 44 -14 21 -13 22 8 18 14 -3 38 6 61 21 21 14 44 26 52
26 25 0 48 57 36 91 -8 25 -7 29 7 30 12 0 13 2 4 6 -8 3 -34 -3 -59 -12 l-46
-18 -24 29 c-12 16 -23 33 -23 38 0 13 -33 35 -52 36 -28 0 -23 40 5 41 21 1
21 1 -3 9 -37 12 -52 11 -44 -2 4 -7 3 -8 -4 -4 -7 4 -12 16 -12 27 0 11 4 18
9 15 5 -3 8 12 7 34 l-1 40 -17 -22 c-10 -13 -18 -19 -18 -14 0 6 10 20 22 33
20 22 21 26 9 76 -19 77 -44 128 -82 172 -43 49 -108 97 -122 88 -5 -3 -7 -1
-4 4 4 6 -27 26 -71 45 -95 44 -127 54 -118 39 4 -6 16 -11 27 -11 12 0 17 -4
14 -11 -4 -6 -1 -10 6 -8 33 4 42 -1 30 -15 -9 -11 -6 -18 18 -35 16 -11 39
-25 52 -30 l24 -10 -22 0 c-27 -1 -26 -1 -12 -38 6 -15 13 -41 16 -58 5 -36
33 -62 44 -43 5 7 11 9 15 5 4 -3 2 -13 -5 -20 -8 -11 -7 -18 8 -31 19 -17 19
-17 15 6 -3 12 3 6 12 -14 16 -39 40 -43 28 -6 -4 13 -2 18 4 14 6 -3 9 -25 8
-49 -2 -34 -7 -44 -29 -55 -17 -8 -32 -10 -44 -4 -33 17 -90 32 -139 37 -27 3
-62 7 -79 9 -85 13 -293 18 -299 7 -4 -6 -12 -9 -17 -6 -5 4 -9 2 -9 -3 0 -5
13 -15 29 -22 33 -13 63 -74 54 -109 -5 -19 -20 -25 -60 -24 -7 1 -11 -3 -8
-7 3 -4 -6 -11 -19 -14 -14 -3 -27 -13 -29 -21 -3 -10 -4 -9 -3 2 1 10 -4 31
-12 47 l-14 28 25 -18 c17 -13 21 -21 13 -26 -7 -5 -7 -8 0 -8 19 0 23 11 12
41 -12 34 -61 59 -115 59 -31 0 -33 -1 -19 -16 9 -8 16 -19 16 -24 0 -5 10
-11 23 -13 l22 -4 -23 -2 c-12 0 -25 6 -28 14 -4 11 -21 15 -57 15 -58 0 -54
9 15 35 34 12 48 24 53 42 6 24 9 25 60 21 30 -3 55 -1 55 3 0 12 -101 15
-235 7 -185 -11 -344 -14 -338 -5 2 4 0 7 -6 7 -5 0 -13 -5 -16 -10 -3 -6 -17
-7 -29 -4 -13 3 -46 -1 -73 -9 -46 -14 -50 -14 -61 4 -7 10 -12 38 -11 61 0
40 1 41 11 18 9 -21 12 -22 15 -7 3 9 13 17 23 17 11 0 24 9 30 20 7 14 7 20
0 20 -5 0 -10 5 -10 11 0 6 7 9 15 5 23 -8 45 22 45 63 0 22 6 44 15 51 16 13
21 35 6 26 -5 -3 -8 5 -7 17 1 20 6 23 29 21 15 -2 27 0 27 5 0 5 8 12 18 14
10 3 6 5 -10 6 -16 0 -28 5 -28 11 0 5 8 7 18 4 13 -5 14 -4 3 4 -11 8 -11 10
0 15 8 3 10 6 4 6 -5 0 -20 -5 -33 -12z m1053 -47 c-3 -5 -13 -10 -21 -10 -8
0 -12 5 -9 10 3 6 13 10 21 10 8 0 12 -4 9 -10z m-1248 -282 c-3 -8 -6 -5 -6
6 -1 11 2 17 5 13 3 -3 4 -12 1 -19z m11 -50 c-2 -29 -18 -40 -18 -13 0 8 -4
15 -10 15 -5 0 -10 11 -10 25 0 23 2 24 20 13 13 -9 19 -22 18 -40z m852 14
c0 -5 -7 -9 -15 -9 -8 0 -12 4 -9 9 3 4 9 8 15 8 5 0 9 -4 9 -8z m595 -39
c-29 -20 -38 -3 -13 24 20 22 23 23 27 7 2 -10 -5 -23 -14 -31z m-1515 27 c0
-5 7 -10 16 -10 8 0 12 -4 9 -10 -6 -10 -45 -15 -45 -6 0 2 -3 11 -6 20 -4 11
-1 16 10 16 9 0 16 -4 16 -10z m1155 0 c3 -5 -3 -10 -14 -10 -12 0 -21 5 -21
10 0 6 6 10 14 10 8 0 18 -4 21 -10z m-825 -21 c0 -6 7 -8 15 -5 20 7 32 -22
15 -37 -10 -9 -11 -9 -6 1 6 11 -5 17 -26 13 -5 0 -7 5 -5 12 1 7 -6 11 -18 9
-16 -2 -17 -1 -5 7 20 14 30 14 30 0z m242 -62 c15 -11 35 -21 45 -22 31 -2
113 -46 124 -66 8 -16 5 -21 -18 -31 -27 -11 -27 -12 -5 -15 12 -3 22 -9 22
-14 0 -6 -9 -7 -20 -4 -34 11 -22 -5 15 -21 43 -18 45 -18 45 3 0 14 2 14 20
-2 20 -18 20 -17 21 16 0 30 1 32 9 12 11 -26 25 -30 34 -8 3 8 13 15 21 15
10 0 13 5 9 12 -5 7 -3 8 6 3 10 -6 9 -11 -4 -21 -9 -6 -14 -14 -9 -17 15 -9
50 11 56 32 3 12 1 19 -3 16 -5 -3 -12 4 -15 16 -9 29 10 39 46 25 24 -8 29
-16 27 -36 -6 -48 67 -86 136 -70 58 13 145 -2 210 -36 58 -31 127 -35 154
-11 16 15 17 13 14 -24 -3 -25 -9 -39 -18 -39 -8 0 -14 7 -14 15 0 8 -5 15
-11 15 -7 0 -9 -13 -5 -37 4 -21 8 -49 10 -63 1 -14 4 -29 4 -35 1 -5 9 1 18
13 10 14 14 36 12 53 -4 22 0 33 14 40 10 5 18 15 18 21 0 16 32 37 47 31 30
-12 8 -102 -31 -122 -11 -6 -36 -23 -55 -36 -27 -20 -46 -25 -94 -25 -52 0
-58 2 -47 15 10 12 10 15 0 15 -6 0 -14 -9 -17 -20 -3 -11 -10 -20 -15 -20 -6
0 -5 -7 2 -15 7 -9 10 -18 7 -21 -3 -3 -11 4 -17 16 -10 18 -9 24 1 31 10 6 6
9 -13 9 -14 0 -28 5 -30 10 -3 11 -43 0 -126 -37 -29 -12 -63 -23 -75 -24
l-22 0 23 -9 c25 -10 30 -30 7 -30 -7 0 -18 -6 -22 -14 -7 -11 -43 -24 -80
-28 -7 -1 -13 -5 -13 -9 0 -4 -12 -12 -27 -18 l-28 -11 30 7 c17 5 63 8 102 8
51 0 74 4 78 13 2 7 1 11 -3 8 -5 -3 -9 2 -9 10 0 9 6 13 14 9 8 -3 19 -5 25
-5 7 0 7 -4 0 -13 -12 -14 -7 -24 22 -47 18 -14 19 -13 13 3 -6 15 -4 16 14 6
29 -15 34 -5 13 26 -17 27 -17 27 7 23 17 -2 26 -11 30 -33 4 -16 7 -22 8 -12
0 9 5 17 10 17 6 0 8 9 6 19 -3 15 3 20 30 23 25 3 31 1 24 -8 -9 -11 4 -19
64 -38 12 -4 17 -16 17 -40 0 -26 5 -35 21 -39 28 -7 15 -27 -17 -27 -14 0
-23 4 -19 9 3 5 1 12 -4 15 -5 3 -11 -3 -14 -14 -6 -24 -34 -26 -80 -6 -27 11
-36 11 -51 0 -22 -15 -86 -7 -102 14 -8 11 -19 13 -40 7 -16 -4 -43 -9 -61
-10 -31 -3 -102 -24 -115 -35 -4 -3 57 -5 135 -4 78 1 150 -3 160 -8 11 -6 17
-5 17 2 0 7 31 10 89 8 49 -1 87 -6 85 -10 -2 -3 9 -3 26 2 16 5 32 5 35 0 2
-4 19 -6 37 -5 46 4 45 3 61 20 13 12 15 11 19 -10 4 -21 3 -23 -14 -14 -17 9
-18 7 -12 -15 4 -16 2 -26 -5 -26 -7 0 -7 -8 0 -26 7 -20 6 -32 -6 -50 -8 -13
-12 -29 -9 -37 6 -16 -13 -33 -24 -22 -3 3 -2 9 4 13 7 4 8 15 3 27 -4 11 -8
14 -8 6 -1 -8 -8 -11 -22 -8 -15 4 -19 2 -15 -9 4 -9 -2 -14 -17 -14 -15 0
-18 -3 -9 -8 13 -9 6 -42 -9 -42 -5 0 -9 -6 -9 -12 0 -7 -14 -22 -30 -33 -16
-11 -30 -23 -30 -27 0 -4 -7 -5 -15 -2 -8 4 -15 1 -15 -5 0 -6 -12 -11 -27
-11 -40 1 -65 -5 -91 -19 -17 -9 -31 -10 -53 -2 -18 6 -27 6 -24 1 4 -6 0 -10
-7 -11 -7 0 -20 -2 -28 -3 -8 -2 -87 -6 -175 -10 -158 -7 -161 -7 -207 18 -26
14 -47 21 -45 15 1 -6 -13 -13 -30 -15 -18 -2 -33 1 -33 6 0 6 -12 8 -27 4
-71 -15 -120 -15 -162 -1 -31 11 -50 13 -63 6 -25 -13 -40 -2 -33 24 5 21 5
21 -6 -1 -13 -23 -29 -30 -29 -11 0 5 -5 7 -10 4 -6 -3 -10 -1 -10 4 0 6 -5
11 -11 11 -5 0 -7 -5 -3 -12 5 -8 2 -9 -10 -5 -10 4 -22 7 -27 7 -5 0 -9 6 -9
14 0 14 -28 29 -46 25 -23 -4 -29 4 -32 39 -1 20 -8 42 -16 47 -14 11 -19 28
-17 53 0 7 14 18 31 23 43 15 26 32 -24 25 -22 -4 -52 -8 -66 -10 -21 -3 -24
-8 -22 -31 2 -15 -3 -32 -10 -36 -10 -7 -9 -9 5 -9 9 0 17 -5 17 -10 0 -7 -7
-7 -21 1 -15 8 -18 14 -10 22 18 18 13 26 -11 20 -23 -5 -23 -5 -3 10 11 9 15
17 8 17 -15 0 -11 27 7 43 10 10 11 9 5 -3 -6 -12 -5 -12 5 -3 7 6 19 9 26 6
8 -3 14 1 14 10 0 12 13 15 63 15 34 -1 65 -6 70 -12 4 -7 10 -8 15 -1 4 6 18
11 32 13 14 2 52 12 85 22 43 12 96 18 185 19 69 0 138 4 153 9 l28 7 -23 26
c-19 21 -22 30 -14 48 7 17 5 26 -12 41 -23 22 -47 26 -57 9 -4 -5 -12 -8 -18
-6 -17 6 -65 -30 -72 -53 -6 -19 -7 -19 -39 5 -18 14 -38 25 -44 25 -7 0 -12
6 -12 13 0 7 -9 18 -20 25 -18 11 -20 10 -20 -16 0 -15 7 -37 15 -49 24 -35
10 -66 -38 -86 -53 -21 -63 -21 -79 1 -13 17 -78 45 -86 37 -9 -9 21 -35 39
-35 11 0 19 -4 19 -9 0 -16 -51 -9 -60 10 -24 45 14 138 58 139 14 0 22 6 22
18 0 9 3 27 6 40 5 16 2 22 -9 22 -9 0 -21 9 -27 20 -13 24 -30 18 -30 -10 0
-13 5 -17 15 -14 22 9 18 -9 -5 -23 -16 -11 -18 -10 -14 2 9 23 -62 32 -86 10
-32 -29 -80 -4 -80 41 0 11 -9 29 -20 39 -15 13 -17 21 -9 26 9 5 8 12 -4 24
-22 21 -21 24 2 18 14 -3 22 4 32 27 12 26 19 31 42 27 15 -2 27 0 27 3 0 4
26 10 57 14 50 6 162 33 172 42 1 1 0 8 -4 14 -5 8 -14 6 -31 -5 -13 -8 -24
-11 -24 -6 0 5 -3 16 -6 25 -4 11 0 16 14 16 11 0 35 6 53 14 49 20 149 31
149 17 0 -6 -10 -16 -22 -21 -14 -5 -17 -9 -8 -10 12 0 13 -2 1 -9 -26 -17 7
-21 49 -6 23 8 53 15 66 15 41 0 169 74 158 92 -3 4 -19 15 -35 24 -28 14 -33
14 -56 -1 -13 -9 -28 -14 -31 -10 -4 3 -1 9 5 13 7 4 9 13 5 19 -10 16 -61 35
-74 27 -6 -4 -8 -2 -4 4 3 6 2 22 -4 37 -6 15 -7 32 -3 38 5 7 10 1 13 -17 3
-16 17 -38 32 -49z m546 61 c7 -7 12 -21 12 -32 0 -23 -10 -16 -14 11 -4 23
-16 20 -30 -8 -12 -26 -68 -47 -59 -23 3 8 0 14 -6 14 -6 0 -11 -5 -11 -12 0
-6 -3 -9 -6 -5 -8 8 6 47 17 47 6 0 7 -5 4 -11 -5 -6 2 -6 16 2 13 7 31 16 39
20 21 11 24 11 38 -3z m158 1 c24 -6 44 -17 44 -24 0 -25 100 -33 123 -11 8 8
19 11 27 6 9 -6 6 -10 -10 -15 -21 -7 -21 -8 -6 -17 9 -5 22 -7 29 -4 7 2 3 5
-8 5 -18 1 -18 2 3 17 27 19 55 11 72 -21 11 -20 10 -26 -4 -40 -9 -9 -16 -23
-16 -30 0 -8 -9 -19 -20 -25 -21 -11 -24 -8 -21 23 3 24 -8 21 -19 -5 -8 -21
-9 -21 -10 -3 -1 18 -1 19 -11 3 -5 -10 -20 -18 -32 -18 -20 1 -20 2 -4 11 9
5 17 17 17 24 0 8 1 15 3 15 1 0 20 7 42 15 33 12 36 14 15 15 -14 1 -35 3
-47 6 -15 2 -34 -6 -56 -25 -25 -23 -37 -27 -50 -19 -10 5 -17 19 -16 31 3 44
0 48 -33 45 -31 -3 -33 -6 -33 -41 0 -32 -3 -37 -22 -37 -26 0 -30 12 -8 30 8
7 15 22 15 34 0 12 5 27 12 34 9 9 8 12 -7 13 -11 1 -23 1 -27 0 -5 0 -8 4 -8
9 0 13 11 13 66 -1z m-1101 -9 c-5 -9 15 -15 38 -11 4 1 3 -8 -3 -19 -11 -21
-35 -18 -24 3 3 7 0 5 -8 -4 -7 -9 -23 -15 -35 -14 -14 1 -19 -3 -16 -12 3 -8
11 -12 17 -10 7 3 12 -3 12 -12 0 -16 -2 -16 -27 -2 -22 12 -25 19 -18 33 5
10 15 18 21 18 6 0 8 3 5 7 -4 3 3 12 16 19 29 16 29 16 22 4z m421 -30 c8 0
14 -4 14 -9 0 -5 -6 -8 -14 -7 -22 3 -46 27 -46 44 0 12 4 11 16 -6 8 -12 22
-22 30 -22z m-664 18 c-13 -7 -21 -17 -17 -26 3 -8 0 -12 -7 -10 -30 10 -1 47
37 47 6 0 0 -5 -13 -11z m1278 -8 c0 -18 -77 -100 -94 -100 -19 0 -19 1 2 20
12 12 23 30 23 40 3 37 4 41 18 49 15 9 51 3 51 -9z m-978 -32 c-7 -7 -12 -8
-12 -2 0 14 12 26 19 19 2 -3 -1 -11 -7 -17z m97 5 c-7 -7 -6 -14 2 -19 8 -4
9 -3 5 4 -4 7 -1 12 8 12 22 0 39 -35 23 -48 -18 -14 -49 -12 -37 3 11 14 3
25 -18 25 -9 0 -12 -6 -8 -16 3 -9 2 -12 -5 -9 -6 4 -8 13 -5 21 3 8 1 14 -4
14 -6 0 -10 7 -10 15 0 10 9 14 29 12 21 -1 27 -5 20 -14z m435 -9 c3 -8 2
-12 -4 -9 -6 3 -10 10 -10 16 0 14 7 11 14 -7z m-504 -14 c0 -5 -8 -10 -17
-10 -15 0 -16 2 -3 10 19 12 20 12 20 0z m720 -10 c0 -5 -5 -10 -11 -10 -5 0
-7 5 -4 10 3 6 8 10 11 10 2 0 4 -4 4 -10z m-983 -30 c2 0 3 -4 3 -9 0 -10
-40 -8 -58 3 -24 15 -11 24 20 15 18 -5 34 -9 35 -9z m538 0 c-3 -5 -12 -10
-18 -10 -7 0 -6 4 3 10 19 12 23 12 15 0z m-370 -29 c-3 -12 -10 -21 -15 -21
-5 0 -4 11 2 25 13 29 23 26 13 -4z m165 7 c0 7 4 12 8 12 4 0 8 -8 8 -18 0
-14 -6 -17 -23 -14 -24 5 -42 22 -23 22 6 0 8 6 5 13 -4 6 1 3 9 -7 9 -11 16
-14 16 -8z m59 8 c10 -12 8 -17 -7 -25 -16 -8 -18 -7 -16 12 4 33 5 34 23 13z
m58 -2 c-3 -3 -12 -4 -19 -1 -8 3 -5 6 6 6 11 1 17 -2 13 -5z m-431 -34 c0
-12 -4 -16 -9 -11 -5 5 -6 14 -3 20 10 15 12 14 12 -9z m62 -7 c1 -22 0 -24
-8 -13 -12 18 -13 40 -2 40 4 0 9 -12 10 -27z m1252 5 c0 -6 -10 -8 -22 -4
-13 3 -30 6 -38 7 -8 0 -4 4 10 8 28 9 50 4 50 -11z m-1209 -6 c-7 -2 -18 1
-23 6 -8 8 -4 9 13 5 13 -4 18 -8 10 -11z m959 5 c0 -5 12 -7 28 -6 15 2 32 0
39 -4 6 -4 19 -4 30 -1 15 5 16 4 3 -6 -12 -9 -10 -10 13 -5 19 4 26 2 22 -5
-3 -5 -19 -10 -35 -10 -15 0 -30 -4 -32 -9 -7 -20 -63 -21 -95 -2 -40 25 -41
56 -1 56 15 0 28 -4 28 -8z m-1166 -46 c-18 -11 -34 -25 -37 -33 -3 -8 -6 -9
-6 -1 -1 13 46 53 63 53 6 0 -3 -9 -20 -19z m381 -2 c-129 -34 -195 -47 -195
-38 0 5 10 9 23 9 12 0 63 11 112 25 50 13 99 24 110 23 11 0 -11 -8 -50 -19z
m205 -9 c0 -5 -5 -10 -11 -10 -5 0 -7 5 -4 10 3 6 8 10 11 10 2 0 4 -4 4 -10z
m-426 -44 c-11 -5 -45 -9 -77 -8 l-58 3 6 -38 6 -38 -15 40 c-8 21 -14 40 -13
41 1 2 32 4 70 6 37 1 67 6 67 10 0 4 7 5 16 1 14 -5 14 -7 -2 -17z m173 18
c-3 -3 -12 -4 -19 -1 -8 3 -5 6 6 6 11 1 17 -2 13 -5z m-444 -34 c-6 -24 -19
-34 -28 -21 -7 12 16 52 26 45 4 -2 5 -13 2 -24z m1802 2 c-3 -3 -11 0 -18 7
-9 10 -8 11 6 5 10 -3 15 -9 12 -12z m-1852 -15 c4 3 7 1 7 -5 0 -7 -9 -12
-20 -12 -12 0 -20 7 -20 16 0 13 3 14 13 5 8 -6 17 -8 20 -4z m2027 3 c0 -5
-4 -10 -10 -10 -5 0 -10 5 -10 10 0 6 5 10 10 10 6 0 10 -4 10 -10z m30 0 c0
-5 -2 -10 -4 -10 -3 0 -8 5 -11 10 -3 6 -1 10 4 10 6 0 11 -4 11 -10z m-1959
-32 c9 -4 22 -1 28 5 8 8 11 8 11 -1 0 -13 -11 -19 -45 -24 -11 -2 -23 -7 -27
-13 -5 -6 -8 -6 -8 1 0 6 -22 12 -52 13 -29 1 -56 5 -60 9 -4 4 17 6 46 4 39
-3 56 0 66 13 7 9 16 12 19 7 3 -5 13 -11 22 -14z m66 -10 c-3 -8 -6 -5 -6 6
-1 11 2 17 5 13 3 -3 4 -12 1 -19z m1668 -177 c-2 -12 -11 -15 -36 -13 -32 3
-67 22 -41 22 7 0 11 4 10 9 -2 5 4 19 12 31 l15 21 21 -27 c12 -15 21 -34 19
-43z m-1642 29 c3 -11 2 -20 -3 -20 -4 0 -10 9 -13 20 -3 11 -2 20 3 20 4 0
10 -9 13 -20z m1197 -50 c0 -5 -2 -10 -4 -10 -3 0 -8 5 -11 10 -3 6 -1 10 4
10 6 0 11 -4 11 -10z m140 -10 c0 -5 -15 -8 -34 -7 -24 1 -31 5 -25 13 10 12
59 7 59 -6z m45 -1 c-10 -15 -25 -10 -19 6 4 8 10 12 15 9 5 -3 7 -10 4 -15z
m-1155 -9 c0 -5 -4 -10 -9 -10 -6 0 -13 5 -16 10 -3 6 1 10 9 10 9 0 16 -4 16
-10z m1276 -14 c10 -8 16 -17 13 -21 -8 -7 -59 15 -59 27 0 13 24 10 46 -6z
m-1336 -6 l25 -8 -25 -2 c-14 -1 -19 -4 -12 -7 6 -2 12 -9 12 -15 0 -15 -24
-35 -38 -30 -17 5 -15 -8 3 -29 15 -15 13 -17 -15 -21 -30 -5 -44 15 -17 25 8
4 7 6 -3 7 -8 0 -24 7 -35 16 -17 13 -18 16 -5 24 11 7 18 3 28 -13 l13 -22
-4 23 c-3 13 0 22 6 22 7 0 6 5 -3 11 -12 8 -9 9 13 5 29 -7 39 10 10 17 -15
4 -14 5 2 5 11 0 31 -4 45 -8z m1311 -27 c12 -16 12 -17 -2 -6 -9 7 -19 10
-22 6 -4 -3 -7 -1 -7 5 0 17 16 15 31 -5z m137 5 c-3 -7 -19 -13 -37 -14 -29
-2 -30 0 -14 12 23 17 56 18 51 2z m-1538 -68 c0 -4 -12 -5 -26 -2 -17 3 -22
7 -13 12 13 9 39 2 39 -10z m1597 -25 c2 -6 -11 -12 -28 -13 -37 -3 -64 24
-47 46 9 10 17 9 41 -5 17 -10 32 -23 34 -28z m-1510 -220 c0 -8 -4 -15 -8
-15 -4 0 -9 7 -13 15 -3 9 0 15 8 15 7 0 13 -7 13 -15z m93 -125 c0 -5 -4 -10
-10 -10 -5 0 -10 5 -10 10 0 6 5 10 10 10 6 0 10 -4 10 -10z"/>
<path d="M1108 1113 c6 -2 18 -2 25 0 6 3 1 5 -13 5 -14 0 -19 -2 -12 -5z"/>
<path d="M1465 1090 c-7 -12 2 -30 16 -30 5 0 9 9 9 20 0 21 -15 27 -25 10z"/>
<path d="M1882 1032 c1 -19 5 -29 10 -24 5 5 5 19 -1 33 -8 22 -9 22 -9 -9z"/>
<path d="M530 1010 c0 -13 5 -18 15 -14 8 4 15 12 15 20 0 8 -7 14 -15 14 -8
0 -15 -9 -15 -20z"/>
<path d="M1424 1008 c-11 -17 -6 -71 7 -79 8 -4 6 -15 -5 -31 -16 -24 -16 -26
1 -30 23 -6 45 1 37 13 -3 5 2 9 10 9 9 0 16 -5 16 -12 0 -6 3 -8 7 -4 5 4 1
13 -8 19 -19 15 -32 57 -16 54 16 -3 21 41 7 59 -15 17 -46 18 -56 2z m26 -53
c-7 -9 -15 -13 -17 -11 -7 7 7 26 19 26 6 0 6 -6 -2 -15z"/>
<path d="M1118 999 c-10 -5 -18 -18 -17 -27 0 -12 2 -13 6 -3 4 9 17 0 42 -30
36 -40 39 -42 59 -27 12 8 19 18 15 22 -4 4 1 4 11 0 14 -5 17 -3 14 7 -3 8
-11 13 -17 11 -7 -1 -10 1 -7 6 3 5 -4 19 -15 30 -21 23 -62 28 -91 11z"/>
<path d="M823 982 c1 -4 -6 -17 -15 -30 -9 -14 -17 -19 -20 -12 -2 8 -9 6 -18
-6 -13 -15 -13 -16 -1 -9 11 6 10 2 -2 -16 -23 -32 -21 -37 8 -31 14 2 25 11
25 19 0 10 7 14 20 10 25 -6 26 1 3 19 -17 13 -17 14 5 20 25 7 29 29 7 38 -8
3 -14 2 -12 -2z"/>
<path d="M873 910 c-3 -11 -10 -17 -16 -13 -5 3 -7 2 -4 -4 4 -6 19 -9 34 -9
15 1 40 -4 54 -10 14 -7 31 -9 38 -4 17 10 4 33 -14 26 -7 -2 -21 1 -31 8 -38
25 -56 27 -61 6z m32 -10 c-3 -5 -11 -10 -16 -10 -6 0 -7 5 -4 10 3 6 11 10
16 10 6 0 7 -4 4 -10z"/>
<path d="M1000 911 c0 -10 50 -25 58 -16 3 3 -2 5 -11 5 -9 0 -17 5 -17 10 0
6 -7 10 -15 10 -8 0 -15 -4 -15 -9z"/>
<path d="M1077 879 c7 -7 15 -10 18 -7 3 3 -2 9 -12 12 -14 6 -15 5 -6 -5z"/>
<path d="M1253 868 c2 -13 2 -18 0 -11 -5 14 -113 15 -113 1 0 -4 -9 -8 -19
-8 -26 0 -30 -10 -17 -36 8 -14 20 -20 39 -20 15 1 27 -2 27 -6 0 -4 6 -8 14
-8 8 0 17 -6 20 -12 4 -7 4 -3 2 9 -4 22 5 29 52 38 14 2 22 -3 27 -18 4 -14
8 -17 12 -9 2 6 11 12 18 12 7 0 15 13 17 29 3 23 -1 32 -23 45 -39 23 -60 21
-56 -6z"/>
<path d="M1388 853 c7 -3 16 -2 19 1 4 3 -2 6 -13 5 -11 0 -14 -3 -6 -6z"/>
<path d="M1385 790 c3 -5 8 -10 11 -10 2 0 4 5 4 10 0 6 -5 10 -11 10 -5 0 -7
-4 -4 -10z"/>
<path d="M1138 773 c7 -3 16 -2 19 1 4 3 -2 6 -13 5 -11 0 -14 -3 -6 -6z"/>
<path d="M1236 773 c-9 -10 -7 -25 3 -19 5 4 12 0 14 -6 4 -8 6 -7 6 4 1 19
-13 31 -23 21z"/>
<path d="M1800 749 c0 -5 5 -7 10 -4 6 3 10 8 10 11 0 2 -4 4 -10 4 -5 0 -10
-5 -10 -11z"/>
<path d="M1285 729 c-11 -17 1 -21 15 -4 8 9 8 15 2 15 -6 0 -14 -5 -17 -11z"/>
<path d="M1738 733 c7 -3 16 -2 19 1 4 3 -2 6 -13 5 -11 0 -14 -3 -6 -6z"/>
<path d="M1250 646 c0 -2 9 -6 20 -9 11 -3 20 -1 20 4 0 5 -9 9 -20 9 -11 0
-20 -2 -20 -4z"/>
<path d="M1300 646 c0 -2 16 -6 35 -8 19 -2 35 0 35 4 0 4 -16 8 -35 8 -19 0
-35 -2 -35 -4z"/>
<path d="M655 540 c-3 -5 -2 -10 4 -10 5 0 13 5 16 10 3 6 2 10 -4 10 -5 0
-13 -4 -16 -10z"/>
<path d="M1987 1313 c-10 -9 -9 -23 2 -23 5 0 11 7 15 15 5 15 -5 20 -17 8z"/>
<path d="M1625 1360 c-3 -5 -1 -10 4 -10 6 0 11 5 11 10 0 6 -2 10 -4 10 -3 0
-8 -4 -11 -10z"/>
<path d="M806 1312 c-2 -4 -1 -14 4 -22 7 -11 9 -9 7 8 -1 24 -3 26 -11 14z"/>
<path d="M1069 1744 c-13 -37 -7 -39 13 -3 9 16 13 29 7 29 -5 0 -14 -12 -20
-26z"/>
<path d="M1013 1675 c-3 -9 -3 -18 -1 -21 3 -3 8 4 11 16 6 23 -1 27 -10 5z"/>
<path d="M2123 1286 c4 -10 7 -26 7 -37 0 -12 5 -16 15 -13 8 4 15 1 15 -5 0
-6 11 -11 25 -11 21 0 24 4 22 30 -1 23 -6 29 -17 24 -38 -16 -50 -16 -50 -1
0 9 -5 19 -12 23 -8 5 -9 2 -5 -10z"/>
<path d="M2266 1281 c-3 -5 1 -11 9 -15 8 -3 15 -1 15 4 0 13 -18 22 -24 11z"/>
</g>
</svg>
